{"title":"Stranger Things Season 1 S01 1080p WEBRip 6CH HEVC x265-GIRAYS 4","uid":15353205,"size":4343164027,"categoryP":"video","categoryS":"hd___tv_shows","magnet":"?xt=urn:btih:c20715a4453db223c56d7d620d7804e3079b39e8&amp;dn=Stranger+Things+Season+1+S01+1080p+WEBRip+6CH+HEVC+x265-GIRAYS+4&amp;tr=udp%3A%2F%2Ftracker.leechers-paradise.org%3A6969&amp;tr=udp%3A%2F%2Fzer0day.ch%3A1337&amp;tr=udp%3A%2F%2Fopen.demonii.com%3A1337&amp;tr=udp%3A%2F%2Ftracker.coppersurfer.tk%3A6969&amp;tr=udp%3A%2F%2Fexodus.desync.com%3A6969","seeders":104,"leechers":33,"uploader":"insane86","files":14,"time":1468956744,"description":"Source: Stranger.Things.S01.1080p.WEBRip.x264-SKGTV\r\n\r\nScreenshots: \nhttps://postimg.org/image/u49zzrcyp/ \nhttps://postimg.org/image/y21v2wp5t/ \nhttps://postimg.org/image/fazxsquld/ \nhttps://postimg.org/image/8ltecq99d/\r\n\r\nEnglish subtitles are included.\r\n\r\nGeneral\r\nFormat                      : Matroska\r\nFormat version              : Version 4 / Version 2\r\nFile size                   : 510 MiB\r\nDuration                    : 47mn 30s\r\nOverall bit rate            : 1 499 Kbps\r\nMovie name                  : stranger.things.s01e01.1080p.skgtv\r\nEncoded date                : UTC 2016-07-18 14:46:54\r\nWriting application         : mkvmerge v9.3.1 ('Mask Machine') 64bit\r\nWriting library             : libebml v1.3.4 + libmatroska v1.4.5\r\n\r\nVideo\r\nID                          : 1\r\nFormat                      : HEVC\r\nFormat/Info                 : High Efficiency Video Coding\r\nFormat profile              :   @Main\r\nCodec ID                    : V_MPEGH/ISO/HEVC\r\nDuration                    : 47mn 30s\r\nBit rate                    : 1 299 Kbps\r\nWidth                       : 1 920 pixels\r\nHeight                      : 960 pixels\r\nDisplay aspect ratio        : 2.000\r\nFrame rate mode             : Constant\r\nFrame rate                  : 23.976 (24000/1001) fps\r\nColor space                 : YUV\r\nChroma subsampling          : 4:2:0\r\nBit depth                   : 8 bits\r\nBits/(Pixel*Frame)          : 0.029\r\nStream size                 : 442 MiB (87%)\r\nWriting library             : x265 1.9+200-6098ba3e0cf16b11:[Windows][GCC 5.3.0][64 bit] 8bit+10bit+12bit\r\nDefault                     : Yes\r\nForced                      : No\r\n\r\nAudio\r\nID                          : 2\r\nFormat                      : AAC\r\nFormat/Info                 : Advanced Audio Codec\r\nFormat profile              : HE-AAC / LC\r\nCodec ID                    : A_AAC\r\nDuration                    : 47mn 30s\r\nBit rate                    : 198 Kbps\r\nChannel(s)                  : 6 channels\r\nChannel positions           : Front: L C R, Side: L R, LFE\r\nSampling rate               : 48.0 KHz / 24.0 KHz\r\nFrame rate                  : 23.438 fps (1024 spf)\r\nCompression mode            : Lossy\r\nDelay relative to video     : 40ms\r\nStream size                 : 67.2 MiB (13%)\r\nLanguage                    : English\r\nDefault                     : Yes\r\nForced                      : No\r\n\r\nText\r\nID                          : 3\r\nFormat                      : UTF-8\r\nCodec ID                    : S_TEXT/UTF8\r\nCodec ID/Info               : UTF-8 Plain Text\r\nDuration                    : 46mn 12s\r\nBit rate                    : 75 bps\r\nCount of elements           : 770\r\nStream size                 : 25.6 KiB (0%)\r\nTitle                       : English\r\nLanguage                    : English\r\nDefault                     : Yes\r\nForced                      : No","torrent":{"xt":"urn:btih:c20715a4453db223c56d7d620d7804e3079b39e8","amp;dn":"Stranger+Things+Season+1+S01+1080p+WEBRip+6CH+HEVC+x265-GIRAYS+4","amp;tr":["udp%3A%2F%2Ftracker.leechers-paradise.org%3A6969","udp%3A%2F%2Fzer0day.ch%3A1337","udp%3A%2F%2Fopen.demonii.com%3A1337","udp%3A%2F%2Ftracker.coppersurfer.tk%3A6969","udp%3A%2F%2Fexodus.desync.com%3A6969"],"infoHash":"c20715a4453db223c56d7d620d7804e3079b39e8","infoHashBuffer":{"type":"Buffer","data":[194,7,21,164,69,61,178,35,197,109,125,98,13,120,4,227,7,155,57,232]},"announce":[],"urlList":[]}}